<svg xmlns="http://www.w3.org/2000/svg" width="34" height="35" fill="none"><path fill="#fff" d="M22.25 17.38a5.25 5.25 0 0 1-10.5 0c0-.299.031-.59.086-.874H10V23.5c0 .487.394.88.88.88h12.242A.88.88 0 0 0 24 23.5v-6.994h-1.836c.054.283.086.575.086.875ZM17 20.88a3.5 3.5 0 0 0 2.474-5.976A3.5 3.5 0 1 0 17 20.88Zm4.2-7.174h2.098a.527.527 0 0 0 .527-.525v-2.099a.527.527 0 0 0-.527-.526H21.2a.527.527 0 0 0-.527.526v2.099a.53.53 0 0 0 .527.525ZM17 .58a16.8 16.8 0 1 0 0 33.6 16.8 16.8 0 0 0 0-33.6Zm8.75 23.605a1.95 1.95 0 0 1-1.944 1.945H10.194a1.95 1.95 0 0 1-1.944-1.945V10.575a1.95 1.95 0 0 1 1.944-1.944h13.612a1.95 1.95 0 0 1 1.944 1.944v13.611Z"/></svg>