<svg xmlns="http://www.w3.org/2000/svg" width="35" height="37" fill="none"><path fill="#F53838" d="m31.147 13.648-.021-.022a.013.013 0 0 1-.005-.005L17.502 0 3.88 13.62l-.004.006-.023.021a13.245 13.245 0 0 0 13.283 22 1.26 1.26 0 0 1 .73 0 13.243 13.243 0 0 0 17.04-14.242 13.246 13.246 0 0 0-3.759-7.757ZM8.723 22.63a.714.714 0 0 0-.209.505 13.219 13.219 0 0 0 1.965 6.802.258.258 0 0 1-.317.375 7.947 7.947 0 0 1-2.543-12.938L17.5 7.493l9.882 9.881a7.945 7.945 0 0 1-.007 11.231 7.922 7.922 0 0 1-2.536 1.707.26.26 0 0 1-.318-.375 13.22 13.22 0 0 0 1.966-6.802.713.713 0 0 0-.21-.505l-4.674-4.958a.26.26 0 0 0-.391.326c1.815 3.285.254 8.004-2.35 10.607l-.013.014a1.918 1.918 0 0 1-2.7 0l-.012-.014c-2.604-2.603-4.164-7.322-2.349-10.607a.258.258 0 0 0-.39-.326L8.722 22.63Z"/></svg>