<svg xmlns="http://www.w3.org/2000/svg" width="35" height="35" fill="none"><path fill="#fff" d="M17.4.58C8.121.58.6 8.103.6 17.38c0 9.28 7.521 16.8 16.8 16.8s16.8-7.52 16.8-16.8c0-9.278-7.522-16.8-16.8-16.8Zm6.834 13.763c.007.143.008.287.008.427 0 4.375-3.326 9.416-9.413 9.416A9.336 9.336 0 0 1 9.758 22.7c.257.031.521.044.789.044 1.55 0 2.977-.527 4.109-1.416a3.316 3.316 0 0 1-3.09-2.296 3.325 3.325 0 0 0 1.492-.058 3.311 3.311 0 0 1-2.655-3.244v-.04c.447.246.958.397 1.5.414a3.308 3.308 0 0 1-1.024-4.42 9.407 9.407 0 0 0 6.82 3.46 3.31 3.31 0 0 1 5.639-3.02 6.644 6.644 0 0 0 2.1-.803 3.325 3.325 0 0 1-1.454 1.833 6.648 6.648 0 0 0 1.9-.524 6.711 6.711 0 0 1-1.65 1.714Z"/></svg>